<svg xmlns="http://www.w3.org/2000/svg" version="1.1" xmlns:xlink="http://www.w3.org/1999/xlink" xmlns:svgjs="http://svgjs.com/svgjs" width="1500" height="1000" preserveAspectRatio="none" viewBox="0 0 1500 1000"><g mask="url(&quot;#SvgjsMask1063&quot;)" fill="none"><rect width="1500" height="1000" x="0" y="0" fill="rgba(161, 27, 50, 0.95)"></rect><path d="M0,676.292C123.536,659.511,185.236,518.297,294.46,458.189C415.599,391.523,586.492,415.69,671.585,306.703C758.922,194.842,765.597,32.878,734.668,-105.629C704.734,-239.679,620.083,-362.398,505.321,-437.863C401.65,-506.035,261.199,-450.238,144.89,-493.451C14.623,-541.85,-71.001,-734.405,-206.19,-702.217C-338.952,-670.606,-337.159,-471.78,-415.49,-360.025C-483.191,-263.435,-599.518,-203.884,-634.446,-91.22C-671.944,29.733,-665.551,164.741,-614.042,280.424C-562.308,396.612,-457.685,476.923,-350.789,545.838C-243.769,614.833,-126.174,693.431,0,676.292" fill="rgba(135, 23, 42, 0.95)"></path><path d="M1500 1460.221C1616.636 1455.687 1734.476 1580.174 1837.02 1524.413 1937.908 1469.5520000000001 1931.183 1321.241 1960.007 1210.078 1984.127 1117.055 1997.9 1025.233 1991.314 929.36 1984.268 826.798 1976.72 721.6949999999999 1920.541 635.5989999999999 1860.0529999999999 542.899 1774.901 455.70000000000005 1666.779 432.00199999999995 1560.358 408.677 1456.68 468.69899999999996 1356.717 512.023 1267.602 550.645 1184.87 598.509 1118.651 669.559 1050.562 742.615 988.886 825.643 972.59 924.17 956.129 1023.698 1001.53 1118.141 1028.375 1215.384 1060.588 1332.0720000000001 1038.2730000000001 1495.509 1145.711 1551.284 1256.169 1608.626 1375.639 1465.055 1500 1460.221" fill="rgba(187, 31, 58, 0.95)"></path></g><defs><mask id="SvgjsMask1063"><rect width="1500" height="1000" fill="#ffffff"></rect></mask></defs></svg>